<svg viewBox="0 0 96 68" fill="none" xmlns="http://www.w3.org/2000/svg">
  <!-- photoshelf · film strip + 4 cámaras en UNA balda
       TLR · Rangefinder · Compacta · DSLR -->

  <rect width="96" height="68" rx="5" fill="#1a1917"/>

  <!-- Top sprockets -->
  <rect x="7"  y="3" width="7" height="5" rx="1.5" fill="#f8f7f5"/>
  <rect x="22" y="3" width="7" height="5" rx="1.5" fill="#f8f7f5"/>
  <rect x="37" y="3" width="7" height="5" rx="1.5" fill="#f8f7f5"/>
  <rect x="52" y="3" width="7" height="5" rx="1.5" fill="#f8f7f5"/>
  <rect x="67" y="3" width="7" height="5" rx="1.5" fill="#f8f7f5"/>
  <rect x="82" y="3" width="7" height="5" rx="1.5" fill="#f8f7f5"/>

  <!-- Bottom sprockets -->
  <rect x="7"  y="60" width="7" height="5" rx="1.5" fill="#f8f7f5"/>
  <rect x="22" y="60" width="7" height="5" rx="1.5" fill="#f8f7f5"/>
  <rect x="37" y="60" width="7" height="5" rx="1.5" fill="#f8f7f5"/>
  <rect x="52" y="60" width="7" height="5" rx="1.5" fill="#f8f7f5"/>
  <rect x="67" y="60" width="7" height="5" rx="1.5" fill="#f8f7f5"/>
  <rect x="82" y="60" width="7" height="5" rx="1.5" fill="#f8f7f5"/>

  <!-- Image frame -->
  <rect x="7" y="11" width="82" height="46" fill="#f8f7f5"/>

  <!-- Balda única -->
  <rect x="7" y="50" width="82" height="2" fill="#1a1917"/>

  <!-- TLR Rolleiflex -->
  <rect x="11" y="21" width="12" height="4"  rx="1"   fill="#1a1917"/>
  <rect x="12" y="25" width="10" height="25" rx="1"   fill="#1a1917"/>
  <circle cx="17" cy="30.5" r="2.8" fill="#f8f7f5"/>
  <circle cx="17" cy="39.5" r="3.2" fill="#f8f7f5"/>
  <circle cx="17" cy="39.5" r="1.2" fill="#1a1917" opacity="0.5"/>

  <!-- Rangefinder analógica -->
  <rect x="26" y="33" width="2.5" height="3"  rx="0.5" fill="#1a1917"/>
  <rect x="26" y="36" width="24"  height="14" rx="1"   fill="#1a1917"/>
  <circle cx="33" cy="43" r="4.5" fill="#f8f7f5"/>
  <circle cx="33" cy="43" r="2.4" fill="#1a1917" opacity="0.4"/>
  <rect x="42" y="38"   width="3.5" height="2.5" rx="0.5" fill="#f8f7f5"/>
  <rect x="42" y="41.5" width="3.5" height="2.5" rx="0.5" fill="#f8f7f5"/>

  <!-- Compacta -->
  <rect x="50" y="40" width="17" height="10" rx="2"   fill="#1a1917"/>
  <circle cx="56" cy="45" r="3.2" fill="#f8f7f5"/>
  <circle cx="56" cy="45" r="1.4" fill="#1a1917" opacity="0.4"/>
  <rect x="61" y="41" width="5" height="4" rx="0.5" fill="#f8f7f5" opacity="0.4"/>

  <!-- DSLR -->
  <rect x="73" y="20" width="11" height="6"  rx="1.5" fill="#1a1917"/>
  <rect x="69" y="26" width="19" height="24" rx="1"   fill="#1a1917"/>
  <rect x="86" y="30" width="3"  height="14" rx="1.5" fill="#1a1917"/>
  <circle cx="78" cy="38" r="7.5" fill="#f8f7f5"/>
  <circle cx="78" cy="38" r="5"   fill="#1a1917" opacity="0.25"/>
  <circle cx="78" cy="38" r="3"   fill="#f8f7f5" opacity="0.6"/>
  <circle cx="78" cy="38" r="1.2" fill="#1a1917"/>
</svg>
